<?xml version="1.0" encoding="utf-8"?>
<!-- Generator: Adobe Illustrator 16.0.0, SVG Export Plug-In . SVG Version: 6.00 Build 0)  -->
<!DOCTYPE svg PUBLIC "-//W3C//DTD SVG 1.1//EN" "http://www.w3.org/Graphics/SVG/1.1/DTD/svg11.dtd">
<svg version="1.1" id="Layer_1" xmlns="http://www.w3.org/2000/svg" xmlns:xlink="http://www.w3.org/1999/xlink" x="0px" y="0px"
	 width="30px" height="30px" viewBox="0 0 30 30" enable-background="new 0 0 30 30" xml:space="preserve">
<rect display="none" width="30" height="30"/>
<rect x="2.375" y="2.919" display="none" fill="#FFFFFF" width="25.25" height="23.667"/>
<g>
	<path fill="#FFFFFF" d="M14.554,15.234c0.399-0.167,0.829-0.272,1.241-0.455c-0.191-0.357-0.373-0.768-0.541-1.099
		c-0.059-0.12-0.102-0.27-0.214-0.348c-2.657,0.764-5.601,1.242-9.038,1.233c-0.068,2.753,0.939,4.675,2.267,6.132
		C9.802,18.344,11.84,16.365,14.554,15.234z"/>
	<path fill="#FFFFFF" d="M16.359,16.277c-3.062,1.096-5.461,2.844-6.958,5.492c1.005,0.78,2.37,1.461,3.964,1.737
		c1.757,0.31,3.598-0.018,4.908-0.59c-0.396-2.246-1.029-4.381-1.754-6.269C16.479,16.533,16.482,16.365,16.359,16.277z"/>
	<path fill="#FFFFFF" d="M11.048,6.906c-2.461,1.217-4.185,3.167-4.882,6.133c3.058-0.036,5.771-0.412,8.172-1.099
		C13.299,10.204,12.254,8.475,11.048,6.906z"/>
	<path fill="#FFFFFF" d="M0,0v30h30V0H0z M22.455,21.795c-0.823,0.895-1.803,1.615-2.967,2.197
		c-1.155,0.578-2.479,1.021-4.044,1.098c-3.301,0.158-5.887-1.102-7.608-2.68c-1.771-1.621-3.11-3.797-3.343-6.935
		c-0.124-1.668,0.206-3.142,0.702-4.392c0.514-1.299,1.124-2.272,1.967-3.186c1.18-1.278,2.782-2.391,4.801-2.946
		c0.723-0.2,1.479-0.327,2.24-0.375c3.378-0.216,5.874,1.135,7.631,2.705c1.755,1.562,3.135,3.835,3.318,6.963
		C25.348,17.535,24.076,20.039,22.455,21.795z"/>
	<path fill="#FFFFFF" d="M18.062,15.85c0.682,1.967,1.309,3.984,1.697,6.24c0.487-0.271,0.924-0.648,1.322-1.045
		c1.223-1.213,2.121-2.785,2.479-4.82C22.043,15.784,19.913,15.561,18.062,15.85z"/>
	<path fill="#FFFFFF" d="M16.093,11.432c1.849-0.744,3.491-1.692,4.583-3.187c-1.449-1.212-3.542-2.308-6.203-2.168
		c-0.645,0.033-1.121,0.081-1.699,0.214c0.993,1.447,2.051,2.947,2.914,4.473C15.812,10.984,15.898,11.245,16.093,11.432z"/>
	<path fill="#FFFFFF" d="M16.738,12.77c0.207,0.401,0.418,0.851,0.595,1.259c0.063,0.148,0.089,0.323,0.216,0.429
		c2.051-0.227,4.329-0.058,6.122,0.295c-0.069-2.404-0.873-4.079-1.996-5.437C20.393,10.827,18.693,11.926,16.738,12.77z"/>
</g>
</svg>
