<?xml version="1.0" encoding="utf-8"?>
<!-- Generator: Adobe Illustrator 16.0.0, SVG Export Plug-In . SVG Version: 6.00 Build 0)  -->
<!DOCTYPE svg PUBLIC "-//W3C//DTD SVG 1.1//EN" "http://www.w3.org/Graphics/SVG/1.1/DTD/svg11.dtd">
<svg version="1.1" id="Layer_1" xmlns="http://www.w3.org/2000/svg" xmlns:xlink="http://www.w3.org/1999/xlink" x="0px" y="0px"
	 width="30px" height="30px" viewBox="0 0 30 30" enable-background="new 0 0 30 30" xml:space="preserve">
<rect x="-8.667" y="-6.5" display="none" fill="#DD4E4E" width="49.833" height="47.667"/>
<g>
	<path fill="#FFFFFF" d="M11.086,10.699c-0.469-3.57-2.748-6.319-5.3-6.395L5.673,4.302c-1.003,0-1.893,0.409-2.572,1.183
		C2.118,6.607,1.698,8.354,1.95,10.273c0.436,3.314,2.826,5.877,5.559,5.959l0.13,0.002c1.023,0,1.887-0.368,2.499-1.066
		C10.999,14.188,11.336,12.6,11.086,10.699z"/>
	<path fill="#FFFFFF" d="M13.879,30c0.009-0.137,0.02-0.271,0.02-0.414c0-0.341-0.042-0.688-0.123-1.036
		c-0.358-1.397-1.632-2.261-3.396-3.452c-0.304-0.205-0.619-0.421-0.943-0.646c-0.752-0.23-1.614-0.37-2.498-0.379h-0.1v0.001
		c-3.157,0-5.916,1.619-6.839,3.784V30H13.879z"/>
	<path fill="#FFFFFF" d="M6.844,22.365c-0.595-0.619-1.106-1.321-1.106-2.398c0-0.546,0.128-1.115,0.38-1.699
		c-0.189,0.008-0.38,0.016-0.575,0.016c-2.246,0-4.159-0.764-5.543-2.071v7.535c1.564-0.845,3.459-1.372,5.608-1.372
		C5.932,22.375,6.746,22.366,6.844,22.365z"/>
	<path fill="#FFFFFF" d="M25.535,14.813h-2.838v-4.676h-4.676V7.298h4.676V2.622h2.838v4.676H30V0H0v5.131
		c1.807-1.794,4.464-2.975,7.321-2.975h10.72l-2.743,2.877h-1.961c1.465,1.185,2.319,3.172,2.319,5.481
		c0,2.094-1.069,4.034-3.091,5.614c-1.685,1.315-1.939,1.813-1.939,2.837c0,0.773,1.8,2.112,2.666,2.756l0.219,0.163
		c3.474,2.606,4.034,4.278,4.034,7.271c0,0.282-0.028,0.564-0.071,0.846H30V10.137h-4.465V14.813z"/>
	<rect x="30" y="7.298" fill="#FFFFFF" width="0.212" height="2.839"/>
	<path fill="#FFFFFF" d="M-2.359,10.371c0,2.41,0.875,4.439,2.359,5.841V5.131C-1.455,6.577-2.359,8.419-2.359,10.371z"/>
	<path fill="#FFFFFF" d="M6.432,34.85c-3.791,0-6.76-2.383-6.76-5.42c0-0.544,0.115-1.072,0.328-1.572v-4.11
		c-2.904,1.568-4.653,4.25-4.653,6.823c0,3.752,4.671,6.475,11.107,6.475c6.438,0,10.467-3.45,11.02-7.045h-3.595
		C13.675,33.172,11.115,34.85,6.432,34.85z"/>
</g>
</svg>
