<?xml version="1.0" encoding="utf-8"?>
<!-- Generator: Adobe Illustrator 16.0.0, SVG Export Plug-In . SVG Version: 6.00 Build 0)  -->
<!DOCTYPE svg PUBLIC "-//W3C//DTD SVG 1.1//EN" "http://www.w3.org/Graphics/SVG/1.1/DTD/svg11.dtd">
<svg version="1.1" id="Layer_1" xmlns="http://www.w3.org/2000/svg" xmlns:xlink="http://www.w3.org/1999/xlink" x="0px" y="0px"
	 width="30px" height="30px" viewBox="0 0 30 30" enable-background="new 0 0 30 30" xml:space="preserve">
<rect x="-2.417" y="-2.417" display="none" fill="#D32F2F" width="36.417" height="35.083"/>
<g>
	<rect x="9.404" y="7.647" fill="#FFFFFF" width="0.61" height="3.53"/>
	<rect x="8.459" y="7.647" fill="#FFFFFF" width="0.567" height="3.53"/>
	<path fill="#FFFFFF" d="M7.45,8.991c0,1.067,0,2.186,0,2.186h0.63V7.646C8.08,7.646,7.45,7.924,7.45,8.991z"/>
	<path fill="#FFFFFF" d="M0,0v30h30V0H0z M23.292,20.996c0,1.277-1.036,2.311-2.312,2.311H9.02c-1.278,0-2.312-1.035-2.312-2.311
		v-8.549h4.721c-0.248,0.518-0.387,1.098-0.387,1.71c0,2.19,1.777,3.968,3.971,3.968c2.194,0,3.971-1.777,3.971-3.968
		c0-0.612-0.137-1.192-0.387-1.71h4.694V20.996z M12.744,12.447c-0.356,0.477-0.569,1.067-0.569,1.71
		c0,1.571,1.271,2.847,2.837,2.847c1.565,0,2.835-1.275,2.835-2.847c0-0.643-0.212-1.233-0.566-1.71h0.722
		c0.289,0.504,0.455,1.087,0.455,1.71c0,1.899-1.543,3.44-3.445,3.44c-1.902,0-3.445-1.541-3.445-3.44
		c0-0.623,0.166-1.206,0.454-1.71H12.744z M12.518,11.787c0.627-0.66,1.514-1.072,2.496-1.072s1.869,0.412,2.497,1.072h-0.927
		c-0.449-0.301-0.988-0.477-1.57-0.477c-0.581,0-1.12,0.175-1.57,0.477H12.518z M23.293,11.785h-5.094
		c-0.725-0.97-1.881-1.597-3.185-1.597s-2.461,0.627-3.184,1.597H6.708v-2.78c0-1.277,1.035-2.312,2.312-2.312h11.96
		c1.277,0,2.312,1.036,2.312,2.312V11.785z"/>
	<rect x="10.329" y="7.647" fill="#FFFFFF" width="0.609" height="3.53"/>
	<path fill="#FFFFFF" d="M21.275,7.797h-1.515c-0.579,0-1.051,0.471-1.051,1.051v1.114c0,0.58,0.472,1.05,1.051,1.05h1.515
		c0.58,0,1.05-0.47,1.05-1.05V8.848C22.325,8.268,21.855,7.797,21.275,7.797z"/>
</g>
</svg>
