<?xml version="1.0" encoding="utf-8"?>
<!-- Generator: Adobe Illustrator 16.0.0, SVG Export Plug-In . SVG Version: 6.00 Build 0)  -->
<!DOCTYPE svg PUBLIC "-//W3C//DTD SVG 1.1//EN" "http://www.w3.org/Graphics/SVG/1.1/DTD/svg11.dtd">
<svg version="1.1" id="Layer_1" xmlns="http://www.w3.org/2000/svg" xmlns:xlink="http://www.w3.org/1999/xlink" x="0px" y="0px"
	 width="30px" height="30px" viewBox="0 0 30 30" enable-background="new 0 0 30 30" xml:space="preserve">
<rect x="2.792" y="2.333" display="none" width="25.25" height="23.667"/>
<g>
	<path display="none" fill="#FFFFFF" d="M16.707,12.548v-0.043c-0.01,0.015-0.021,0.03-0.029,0.043H16.707z"/>
	<path fill="#FFFFFF" d="M0,0v30h30V0H0z M9.903,23.812h-4.38V10.638h4.38V23.812z M7.714,8.841H7.685
		c-1.469,0-2.421-1.013-2.421-2.278c0-1.292,0.981-2.276,2.479-2.276s2.42,0.983,2.449,2.276C10.192,7.828,9.242,8.841,7.714,8.841z
		 M25.695,23.812h-4.379v-7.049c0-1.771-0.633-2.979-2.219-2.979c-1.209,0-1.932,0.814-2.246,1.602
		c-0.115,0.281-0.146,0.675-0.146,1.068v7.356h-4.381c0,0,0.06-11.938,0-13.173h4.381v1.867c0.581-0.896,1.62-2.176,3.945-2.176
		c2.885,0,5.043,1.883,5.043,5.93v7.555H25.695L25.695,23.812z"/>
</g>
</svg>
