<?xml version="1.0" encoding="utf-8"?>
<!-- Generator: Adobe Illustrator 16.0.0, SVG Export Plug-In . SVG Version: 6.00 Build 0)  -->
<!DOCTYPE svg PUBLIC "-//W3C//DTD SVG 1.1//EN" "http://www.w3.org/Graphics/SVG/1.1/DTD/svg11.dtd">
<svg version="1.1" id="Layer_1" xmlns="http://www.w3.org/2000/svg" xmlns:xlink="http://www.w3.org/1999/xlink" x="0px" y="0px"
	 width="30px" height="30px" viewBox="0 0 30 30" enable-background="new 0 0 30 30" xml:space="preserve">
<rect x="-1.107" y="-1.964" display="none" fill="#D62929" width="32.036" height="33.108"/>
<rect x="3.625" y="3.75" display="none" fill="#FFFFFF" width="23.125" height="21.75"/>
<path display="none" fill="#D3230A" d="M27.312,1H2.688v24.625h7.504c0-0.018,0.004-0.033,0.004-0.052
	c-0.008-0.192-0.029-0.384-0.057-0.575c-0.025-0.229-0.053-0.458-0.098-0.686c0.011,0.006,0.02,0.012,0.031,0.016
	c-0.036-0.857-0.007-1.887,0.212-2.82c0.236-0.994,1.58-6.687,1.58-6.687s-0.392-0.784-0.392-1.943c0-1.82,1.055-3.177,2.368-3.177
	c1.117,0,1.654,0.836,1.654,1.842c0,1.123-0.714,2.8-1.083,4.357c-0.306,1.3,0.654,2.363,1.938,2.363
	c2.324,0,3.893-2.989,3.893-6.528c0-2.689-1.812-4.703-5.107-4.703c-3.723,0-6.044,2.776-6.044,5.877
	c0,1.071,0.317,1.825,0.81,2.407c0.228,0.27,0.258,0.376,0.177,0.686c-0.061,0.226-0.195,0.771-0.251,0.983
	c-0.081,0.312-0.334,0.424-0.615,0.31c-1.716-0.7-2.513-2.58-2.513-4.69c0-3.487,2.939-7.667,8.771-7.667
	c4.686,0,7.77,3.391,7.77,7.031c0,4.815-2.678,8.414-6.623,8.414c-1.324,0-2.569-0.719-2.997-1.53c0,0-0.713,2.828-0.865,3.375
	c-0.254,0.93-0.749,1.854-1.208,2.586c-0.096,0.08-0.181,0.168-0.258,0.265c-0.218,0.168-0.417,0.349-0.609,0.546h16.632V1L27.312,1
	z"/>
<path fill="#FFFFFF" d="M0,0v30h30V0H0z M16.343,19.652c-1.259-0.098-1.785-0.721-2.772-1.318c-0.542,2.842-1.204,5.566-3.166,6.992
	c-0.605-4.299,0.889-7.523,1.583-10.952c-1.184-1.991,0.143-6,2.638-5.013c3.073,1.216-2.659,7.409,1.188,8.18
	c4.019,0.809,5.656-6.97,3.168-9.499C15.381,4.39,8.504,7.958,9.35,13.187c0.205,1.279,1.525,1.668,0.527,3.433
	c-2.304-0.513-2.99-2.329-2.903-4.751c0.143-3.965,3.562-6.739,6.993-7.125c4.34-0.485,8.411,1.593,8.973,5.674
	C23.573,15.023,20.982,20.014,16.343,19.652z"/>
</svg>
