<?xml version="1.0" encoding="utf-8"?>
<!-- Generator: Adobe Illustrator 16.0.0, SVG Export Plug-In . SVG Version: 6.00 Build 0)  -->
<!DOCTYPE svg PUBLIC "-//W3C//DTD SVG 1.1//EN" "http://www.w3.org/Graphics/SVG/1.1/DTD/svg11.dtd">
<svg version="1.1" id="Layer_1" xmlns="http://www.w3.org/2000/svg" xmlns:xlink="http://www.w3.org/1999/xlink" x="0px" y="0px"
	 width="30px" height="30px" viewBox="0 0 30 30" enable-background="new 0 0 30 30" xml:space="preserve">
<path fill="#FFFFFF" d="M0,0v30h30V0H0z M9.911,23.566L9.911,23.566c-0.452,0.447-1.067,0.723-1.751,0.723
	c-0.683,0-1.297-0.273-1.748-0.723c-0.449-0.45-0.725-1.062-0.725-1.739c0-0.681,0.276-1.293,0.725-1.743
	c0.451-0.448,1.064-0.727,1.748-0.727c0.684,0,1.298,0.278,1.75,0.727c0.451,0.45,0.725,1.062,0.727,1.743
	C10.635,22.507,10.361,23.116,9.911,23.566z M14.407,24.314v-0.008h-0.001c-0.004-2.33-0.912-4.529-2.555-6.168
	c-1.644-1.647-3.84-2.56-6.161-2.561v-3.557c3.388,0.001,6.455,1.379,8.683,3.608c2.227,2.229,3.602,5.296,3.605,8.686H14.407z
	 M20.747,24.312C20.742,16.007,13.995,9.248,5.696,9.243V5.688c5.132,0.001,9.781,2.089,13.154,5.463
	c3.373,3.375,5.461,8.026,5.463,13.162H20.747z"/>
</svg>
