<?xml version="1.0" encoding="utf-8"?>
<!-- Generator: Adobe Illustrator 16.0.0, SVG Export Plug-In . SVG Version: 6.00 Build 0)  -->
<!DOCTYPE svg PUBLIC "-//W3C//DTD SVG 1.1//EN" "http://www.w3.org/Graphics/SVG/1.1/DTD/svg11.dtd">
<svg version="1.1" id="Layer_1" xmlns="http://www.w3.org/2000/svg" xmlns:xlink="http://www.w3.org/1999/xlink" x="0px" y="0px"
	 width="30px" height="30px" viewBox="0 0 30 30" enable-background="new 0 0 30 30" xml:space="preserve">
<rect x="2.375" y="3.167" display="none" width="25.25" height="23.667"/>
<path fill="#FFFFFF" d="M0,0v30h30V0H0z M20.834,23.438c-0.794,0.373-1.514,0.633-2.161,0.789c-0.646,0.147-1.344,0.228-2.091,0.228
	c-0.852,0-1.355-0.104-2.009-0.321c-0.654-0.217-1.211-0.521-1.673-0.92c-0.461-0.396-0.781-0.82-0.961-1.271
	c-0.18-0.444-0.268-1.099-0.268-1.948v-6.529h-2.53v-2.636c0.731-0.236,1.58-0.579,2.101-1.021C11.767,9.364,12.183,8.83,12.5,8.21
	c0.316-0.622,0.532-1.416,0.65-2.373h2.65v4.305h4.304v3.322H15.8v4.772c0,1.08-0.018,1.703,0.101,2.011
	c0.111,0.306,0.396,0.621,0.707,0.806c0.414,0.244,0.887,0.369,1.414,0.369c0.941,0,1.881-0.307,2.812-0.92V23.438L20.834,23.438z"
	/>
</svg>
