<?xml version="1.0" encoding="utf-8"?>
<!-- Generator: Adobe Illustrator 16.0.0, SVG Export Plug-In . SVG Version: 6.00 Build 0)  -->
<!DOCTYPE svg PUBLIC "-//W3C//DTD SVG 1.1//EN" "http://www.w3.org/Graphics/SVG/1.1/DTD/svg11.dtd">
<svg version="1.1" id="Layer_1" xmlns="http://www.w3.org/2000/svg" xmlns:xlink="http://www.w3.org/1999/xlink" x="0px" y="0px"
	 width="30px" height="30px" viewBox="0 0 30 30" enable-background="new 0 0 30 30" xml:space="preserve">
<path fill="#FFFFFF" d="M0,0v30h30V0H0z M6,15.047C6,13.809,6.252,12.5,6.709,11.5h0.474c0.467,0,0.907,0.51,0.907,0.51
	l3.454,11.326C8.287,21.973,6,18.775,6,15.047z M15.063,24.092c-0.736,0-1.449-0.088-2.134-0.252l2.317-5.66l2.023,5.643
	C16.562,23.998,15.825,24.092,15.063,24.092z M16.441,12.856c0,0-0.072-0.508-0.072-0.655c0-0.185,0.062-0.358,0.175-0.488
	c0.079-0.086,0.199-0.214,0.341-0.214H17.5v-1h-5v1h0.113c0.178,0,0.353,0.188,0.521,0.359c0.199,0.205,0.448,0.951,0.751,1.751
	l0.791,2.592l-1.704,3.929l-1.87-7.872c0,0,0.055-0.489,0.168-0.581c0.074-0.062,0.187-0.179,0.318-0.179H11.5v-1L7.024,10.5
	c1.512-3,4.543-4.617,8.039-4.617c2.263,0,4.33,0.987,5.917,2.347c-0.453-0.087-0.948,0.023-1.446,0.308
	c-1.168,0.67-1.552,2.572-0.035,3.524c0.944,0.591,1.28,2.073,1.25,2.976c-0.031,0.905-2.199,5.063-2.199,5.063L16.441,12.856z
	 M18.775,23.302c0.842-1.944,3.01-7.049,3.887-9.885c0.336-1.089,0.371-2.082,0.199-2.898c0.802,1.342,1.264,2.907,1.264,4.579
	C24.125,18.751,21.93,21.895,18.775,23.302z"/>
</svg>
