<?xml version="1.0" encoding="utf-8"?>
<!-- Generator: Adobe Illustrator 16.0.0, SVG Export Plug-In . SVG Version: 6.00 Build 0)  -->
<!DOCTYPE svg PUBLIC "-//W3C//DTD SVG 1.1//EN" "http://www.w3.org/Graphics/SVG/1.1/DTD/svg11.dtd">
<svg version="1.1" id="Layer_1" xmlns="http://www.w3.org/2000/svg" xmlns:xlink="http://www.w3.org/1999/xlink" x="0px" y="0px"
	 width="30px" height="30px" viewBox="0 0 30 30" enable-background="new 0 0 30 30" xml:space="preserve">
<rect x="-1.75" y="-1.188" display="none" fill="#C93232" width="33.844" height="32.75"/>
<g>
	<polygon fill="#FFFFFF" points="11.174,17.045 11.174,16.029 7.088,16.023 7.088,17.021 8.364,17.025 8.364,23.898 9.641,23.898 
		9.64,17.045 	"/>
	<path fill="#FFFFFF" d="M0,0v30h30V0H0z M17.26,6.357h1.174v4.716c0,0.255,0.211,0.464,0.465,0.464c0.259,0,0.47-0.209,0.47-0.464
		V6.357h1.121v6.06h-1.425l0.021-0.501c-0.094,0.203-0.214,0.356-0.357,0.458c-0.142,0.104-0.305,0.153-0.487,0.153
		c-0.212,0-0.386-0.049-0.524-0.145c-0.138-0.098-0.242-0.229-0.307-0.388c-0.064-0.163-0.107-0.331-0.125-0.507
		c-0.014-0.175-0.025-0.522-0.025-1.043V6.357z M13.761,6.422c0.251-0.199,0.574-0.298,0.966-0.298c0.33,0,0.612,0.064,0.848,0.191
		c0.237,0.127,0.42,0.293,0.547,0.497c0.131,0.205,0.218,0.416,0.264,0.63c0.048,0.218,0.071,0.548,0.071,0.992v1.533
		c0,0.562-0.021,0.975-0.064,1.238c-0.043,0.263-0.138,0.507-0.281,0.736c-0.144,0.227-0.324,0.396-0.549,0.504
		c-0.225,0.109-0.48,0.162-0.771,0.162c-0.325,0-0.598-0.045-0.824-0.139c-0.226-0.093-0.401-0.233-0.525-0.419
		c-0.126-0.187-0.215-0.415-0.268-0.68c-0.054-0.265-0.079-0.664-0.079-1.194V8.572h-0.003c0-0.583,0.049-1.036,0.145-1.364
		C13.335,6.881,13.508,6.619,13.761,6.422z M10.028,3.97l0.856,2.968l0.845-2.958h1.469l-1.587,3.98l-0.001,4.647h-1.345
		l-0.002-4.645L8.573,3.97H10.028z M24.191,23.191c0,1.562-1.354,2.838-3.008,2.838H8.816c-1.655,0-3.008-1.273-3.008-2.838v-6.506
		c0-1.56,1.353-2.835,3.008-2.835h12.368c1.654-0.002,3.008,1.275,3.008,2.835V23.191z"/>
	<path fill="#FFFFFF" d="M14.775,11.601c0.311,0,0.565-0.279,0.565-0.622V7.753c0-0.344-0.254-0.624-0.565-0.624
		c-0.312,0-0.567,0.28-0.567,0.624v3.226C14.208,11.322,14.464,11.601,14.775,11.601z"/>
	<path fill="#FFFFFF" d="M16.275,18.295l0.004-2.266l-1.277,0.002l-0.005,7.816l1.05-0.018l0.096-0.484
		c1.342,1.23,2.186,0.387,2.183-1.088l-0.002-3.047C18.322,18.049,17.454,17.355,16.275,18.295z M17.377,22.479
		c0,0.252-0.252,0.457-0.561,0.457s-0.56-0.205-0.56-0.457v-3.42c0-0.254,0.251-0.459,0.56-0.459s0.561,0.205,0.561,0.459V22.479z"
		/>
	<path fill="#FFFFFF" d="M12.959,21.727c0,0.527,0.032,0.793-0.002,0.887c-0.104,0.285-0.571,0.584-0.753,0.031
		c-0.031-0.1-0.004-0.393-0.004-0.896l-0.006-3.686h-1.271l0.003,3.627c0.001,0.557-0.012,0.973,0.005,1.16
		c0.031,0.33,0.02,0.719,0.328,0.939c0.575,0.416,1.677-0.061,1.953-0.652l-0.003,0.754l1.026,0.002l0.001-5.826h-1.277V21.727z"/>
	<path fill="#FFFFFF" d="M21.368,21.857c-0.002,0.039-0.002,0.082-0.003,0.133v0.531c0,0.287-0.236,0.521-0.523,0.521h-0.188
		c-0.288,0-0.523-0.23-0.523-0.521v-0.059v-0.588v-0.758h2.193v-0.826c0-0.605-0.016-1.209-0.064-1.553
		c-0.156-1.092-1.689-1.266-2.464-0.707c-0.241,0.174-0.428,0.408-0.536,0.723c-0.109,0.312-0.162,0.742-0.162,1.287v1.816
		c0,3.02,3.666,2.592,3.229-0.004L21.368,21.857z M20.152,19.402c0-0.312,0.256-0.568,0.57-0.568H20.8
		c0.313,0,0.57,0.256,0.57,0.568l-0.013,0.703h-1.211L20.152,19.402z"/>
</g>
</svg>
